<svg width="24" height="24" viewBox="0 0 24 24" fill="none" xmlns="http://www.w3.org/2000/svg">
<g id="cart">
<path id="Vector" d="M21 10.5715V11.1429C21 11.6163 20.6642 12.0001 20.25 12.0001H20L19.184 18.5282C19.0784 19.3727 18.4455 20 17.6991 20H6.30094C5.55447 20 4.92159 19.3727 4.816 18.5282L4 12.0001H3.75C3.33578 12.0001 3 11.6163 3 11.1429V10.5715C3 10.0981 3.33578 9.71435 3.75 9.71435H5.85441L9.19128 4.47078C9.51613 3.96035 10.1415 3.84746 10.5882 4.21871C11.0348 4.58995 11.1336 5.3047 10.8088 5.81516L8.32741 9.71435H15.6726L13.1912 5.81513C12.8664 5.3047 12.9652 4.58992 13.4118 4.21867C13.8584 3.84742 14.4839 3.96028 14.8088 4.47074L18.1456 9.71435H20.25C20.6642 9.71435 21 10.0981 21 10.5715ZM12.75 16.8572V12.8572C12.75 12.3838 12.4142 12.0001 12 12.0001C11.5858 12.0001 11.25 12.3838 11.25 12.8572V16.8572C11.25 17.3306 11.5858 17.7143 12 17.7143C12.4142 17.7143 12.75 17.3306 12.75 16.8572ZM16.25 16.8572V12.8572C16.25 12.3838 15.9142 12.0001 15.5 12.0001C15.0858 12.0001 14.75 12.3838 14.75 12.8572V16.8572C14.75 17.3306 15.0858 17.7143 15.5 17.7143C15.9142 17.7143 16.25 17.3306 16.25 16.8572ZM9.25 16.8572V12.8572C9.25 12.3838 8.91422 12.0001 8.5 12.0001C8.08578 12.0001 7.75 12.3838 7.75 12.8572V16.8572C7.75 17.3306 8.08578 17.7143 8.5 17.7143C8.91422 17.7143 9.25 17.3306 9.25 16.8572Z" fill="#2B2C30"/>
</g>
</svg>
