<svg width="24" height="24" viewBox="0 0 24 24" fill="none" xmlns="http://www.w3.org/2000/svg">
<g id="phone">
<path id="Vector" d="M19.7777 17.3046L17.5219 19.5423C17.1889 19.8838 16.7475 19.9995 16.3176 20C14.4167 19.9431 12.6199 19.0093 11.1446 18.0505C8.72294 16.2887 6.50099 14.1043 5.10646 11.4644C4.5716 10.3575 3.94403 8.94504 4.00399 7.70945C4.00934 7.24465 4.13459 6.78848 4.46194 6.48888L6.71775 4.2342C7.18618 3.83576 7.63918 3.97352 7.93894 4.43762L9.75375 7.87899C9.94476 8.28668 9.83519 8.72351 9.5502 9.01482L8.71911 9.84549C8.6678 9.91577 8.63514 9.99577 8.63431 10.0828C8.953 11.3165 9.91848 12.4535 10.7714 13.236C11.6243 14.0185 12.5411 15.0786 13.7311 15.3296C13.8782 15.3706 14.0583 15.385 14.1636 15.2872L15.1304 14.304C15.4637 14.0514 15.9449 13.9279 16.3007 14.1345H16.3176L19.5911 16.067C20.0716 16.3683 20.1217 16.9504 19.7777 17.3046Z" fill="#2B2C30"/>
</g>
</svg>
