<svg width="16" height="16" viewBox="0 0 16 16" fill="none" xmlns="http://www.w3.org/2000/svg">
<g id="time">
<path id="Vector" d="M8.00004 1.33331C4.32404 1.33331 1.33337 4.32398 1.33337 7.99998C1.33337 11.676 4.32404 14.6666 8.00004 14.6666C11.676 14.6666 14.6667 11.676 14.6667 7.99998C14.6667 4.32398 11.676 1.33331 8.00004 1.33331ZM8.00004 13.3333C5.05937 13.3333 2.66671 10.9406 2.66671 7.99998C2.66671 5.05931 5.05937 2.66665 8.00004 2.66665C10.9407 2.66665 13.3334 5.05931 13.3334 7.99998C13.3334 10.9406 10.9407 13.3333 8.00004 13.3333Z" fill="#ABACAF"/>
<path id="Vector_2" d="M8.66671 4.66669H7.33337V8.27602L9.52871 10.4714L10.4714 9.52869L8.66671 7.72402V4.66669Z" fill="#ABACAF"/>
</g>
</svg>
