<svg width="24" height="24" viewBox="0 0 24 24" fill="none" xmlns="http://www.w3.org/2000/svg">
<g id="icon/hot-pepper">
<rect width="24" height="24" fill="white"/>
<g id="Group 1">
<path id="Vector" d="M2.71394 1.19554C1.36394 2.43304 2.41394 5.24554 2.41394 5.24554C0.87644 7.00804 1.36394 10.0455 1.36394 10.0455L3.20144 5.05804C2.97644 2.35804 3.98894 1.57054 3.98894 1.57054C4.17644 1.15804 3.20144 0.74554 2.71394 1.19554Z" fill="#6C9925"/>
<path id="Vector_2" d="M3.08883 1.49554C1.96383 2.50804 3.01383 5.17054 3.01383 5.17054C1.47633 6.93304 2.00133 8.54554 1.96383 9.52054L9.42633 5.09554C8.60133 2.92054 3.98883 4.08304 3.98883 4.08304C3.05133 2.47054 3.98883 1.57054 3.98883 1.57054C3.98883 1.57054 3.68883 1.68304 3.08883 1.49554Z" fill="#8CC63E"/>
<path id="Vector_3" d="M16.3265 18.258C12.689 14.7705 12.2765 11.958 12.2765 8.80804C12.2765 6.33304 10.7765 4.57054 9.16396 4.27054C8.33896 4.12054 5.78896 4.00804 6.65146 4.75804C7.47646 5.50804 3.61396 4.90804 3.61396 6.52054C3.61396 7.68304 2.63896 6.29554 1.47646 9.18304C0.313964 12.183 1.43896 14.2455 3.12646 16.1205C6.42646 19.7205 14.1515 26.283 22.139 22.158C26.264 20.0955 19.8515 21.633 16.3265 18.258Z" fill="#ED4040"/>
</g>
</g>
</svg>
