<svg width="190" height="156" viewBox="0 0 190 156" fill="none" xmlns="http://www.w3.org/2000/svg">
<g clip-path="url(#clip0_147_1812)">
<rect width="63" height="63" fill="#F4F5F9"/>
<path d="M12.7235 25.4471C19.7393 25.4471 25.4471 19.7393 25.4471 12.7235C25.4471 5.7078 19.7393 0 12.7235 0C5.7078 0 0 5.7078 0 12.7235C0 19.7393 5.7078 25.4471 12.7235 25.4471ZM12.7235 3.70588C17.6958 3.70588 21.7412 7.75122 21.7412 12.7235C21.7412 17.6958 17.6958 21.7412 12.7235 21.7412C7.75122 21.7412 3.70588 17.6958 3.70588 12.7235C3.70588 7.75122 7.75122 3.70588 12.7235 3.70588Z" fill="#E9E9EB"/>
<path d="M12.7236 18.2824C15.7888 18.2824 18.2824 15.7887 18.2824 12.7235C18.2824 9.65839 15.7888 7.1647 12.7236 7.1647C9.65848 7.1647 7.16479 9.65839 7.16479 12.7235C7.16479 15.7887 9.65848 18.2824 12.7236 18.2824ZM12.7236 10.8706C13.7453 10.8706 14.5766 11.7018 14.5766 12.7235C14.5766 13.7452 13.7453 14.5765 12.7236 14.5765C11.7019 14.5765 10.8707 13.7452 10.8707 12.7235C10.8707 11.7018 11.7019 10.8706 12.7236 10.8706Z" fill="#E9E9EB"/>
<path d="M18.5294 29.6471H7.41177C3.32492 29.6471 0 32.972 0 37.0588V48.1765C0 52.2633 3.32492 55.5882 7.41177 55.5882H18.5294C22.6163 55.5882 25.9412 52.2633 25.9412 48.1765V37.0588C25.9412 32.972 22.6163 29.6471 18.5294 29.6471ZM22.2353 48.1765C22.2353 50.2199 20.5728 51.8824 18.5294 51.8824H7.41177C5.36834 51.8824 3.70588 50.2199 3.70588 48.1765V37.0588C3.70588 35.0154 5.36834 33.3529 7.41177 33.3529H18.5294C20.5728 33.3529 22.2353 35.0154 22.2353 37.0588V48.1765Z" fill="#E9E9EB"/>
<path d="M14.8236 37.0588H11.1177C9.07432 37.0588 7.41187 38.7213 7.41187 40.7647V44.4706C7.41187 46.514 9.07432 48.1765 11.1177 48.1765H14.8236C16.8671 48.1765 18.5295 46.514 18.5295 44.4706V40.7647C18.5295 38.7213 16.8671 37.0588 14.8236 37.0588ZM14.8236 44.4706H11.1177V40.7647H14.8236L14.826 44.4705C14.826 44.4705 14.8252 44.4706 14.8236 44.4706Z" fill="#E9E9EB"/>
<path d="M50.2763 37.5529C43.2605 37.5529 37.5527 43.2607 37.5527 50.2764C37.5527 57.2922 43.2605 63 50.2763 63C57.292 63 62.9998 57.2922 62.9998 50.2764C62.9998 43.2607 57.292 37.5529 50.2763 37.5529ZM50.2763 59.2941C45.304 59.2941 41.2586 55.2487 41.2586 50.2764C41.2586 45.3041 45.304 41.2588 50.2763 41.2588C55.2486 41.2588 59.2939 45.3041 59.2939 50.2764C59.2939 55.2487 55.2486 59.2941 50.2763 59.2941Z" fill="#E9E9EB"/>
<path d="M50.2766 44.7177C47.2113 44.7177 44.7178 47.2113 44.7178 50.2765C44.7178 53.3416 47.2113 55.8353 50.2766 55.8353C53.3417 55.8353 55.8354 53.3416 55.8354 50.2765C55.8354 47.2113 53.3417 44.7177 50.2766 44.7177ZM50.2766 52.1294C49.2549 52.1294 48.4237 51.2982 48.4237 50.2765C48.4237 49.2548 49.2549 48.4235 50.2766 48.4235C51.2983 48.4235 52.1295 49.2548 52.1295 50.2765C52.1295 51.2982 51.2983 52.1294 50.2766 52.1294Z" fill="#E9E9EB"/>
<path d="M55.5883 7.41177H44.4706C40.3838 7.41177 37.0588 10.7367 37.0588 14.8235V25.9412C37.0588 30.028 40.3838 33.353 44.4706 33.353H55.5883C59.6751 33.353 63 30.028 63 25.9412V14.8235C63 10.7367 59.6751 7.41177 55.5883 7.41177ZM59.2941 25.9412C59.2941 27.9846 57.6317 29.6471 55.5883 29.6471H44.4706C42.4272 29.6471 40.7647 27.9846 40.7647 25.9412V14.8235C40.7647 12.7801 42.4272 11.1177 44.4706 11.1177H55.5883C57.6317 11.1177 59.2941 12.7801 59.2941 14.8235V25.9412Z" fill="#E9E9EB"/>
<path d="M51.8825 14.8235H48.1766C46.1332 14.8235 44.4707 16.486 44.4707 18.5294V22.2353C44.4707 24.2787 46.1332 25.9412 48.1766 25.9412H51.8825C53.9259 25.9412 55.5884 24.2787 55.5884 22.2353V18.5294C55.5884 16.486 53.9259 14.8235 51.8825 14.8235ZM51.8825 22.2353H48.1766L48.1742 18.5296C48.1742 18.5296 48.175 18.5294 48.1766 18.5294H51.8825V22.2353Z" fill="#E9E9EB"/>
<path d="M27.7942 0H31.5001V29.6471H27.7942V0Z" fill="#E9E9EB"/>
<path d="M31.5 33.3529H35.2059V63H31.5V33.3529Z" fill="#E9E9EB"/>
</g>
<g clip-path="url(#clip1_147_1812)">
<rect width="63" height="63" transform="translate(127 93)" fill="#F4F5F9"/>
<path d="M139.724 118.447C146.739 118.447 152.447 112.739 152.447 105.724C152.447 98.7078 146.739 93 139.724 93C132.708 93 127 98.7078 127 105.724C127 112.739 132.708 118.447 139.724 118.447ZM139.724 96.7059C144.696 96.7059 148.741 100.751 148.741 105.724C148.741 110.696 144.696 114.741 139.724 114.741C134.751 114.741 130.706 110.696 130.706 105.724C130.706 100.751 134.751 96.7059 139.724 96.7059Z" fill="#E9E9EB"/>
<path d="M139.724 111.282C142.789 111.282 145.282 108.789 145.282 105.724C145.282 102.658 142.789 100.165 139.724 100.165C136.658 100.165 134.165 102.658 134.165 105.724C134.165 108.789 136.658 111.282 139.724 111.282ZM139.724 103.871C140.745 103.871 141.577 104.702 141.577 105.724C141.577 106.745 140.745 107.576 139.724 107.576C138.702 107.576 137.871 106.745 137.871 105.724C137.871 104.702 138.702 103.871 139.724 103.871Z" fill="#E9E9EB"/>
<path d="M145.529 122.647H134.412C130.325 122.647 127 125.972 127 130.059V141.176C127 145.263 130.325 148.588 134.412 148.588H145.529C149.616 148.588 152.941 145.263 152.941 141.176V130.059C152.941 125.972 149.616 122.647 145.529 122.647ZM149.235 141.176C149.235 143.22 147.573 144.882 145.529 144.882H134.412C132.368 144.882 130.706 143.22 130.706 141.176V130.059C130.706 128.015 132.368 126.353 134.412 126.353H145.529C147.573 126.353 149.235 128.015 149.235 130.059V141.176Z" fill="#E9E9EB"/>
<path d="M141.824 130.059H138.118C136.074 130.059 134.412 131.721 134.412 133.765V137.471C134.412 139.514 136.074 141.176 138.118 141.176H141.824C143.867 141.176 145.53 139.514 145.53 137.471V133.765C145.53 131.721 143.867 130.059 141.824 130.059ZM141.824 137.471H138.118V133.765H141.824L141.826 137.47C141.826 137.47 141.825 137.471 141.824 137.471Z" fill="#E9E9EB"/>
<path d="M177.276 130.553C170.261 130.553 164.553 136.261 164.553 143.276C164.553 150.292 170.261 156 177.276 156C184.292 156 190 150.292 190 143.276C190 136.261 184.292 130.553 177.276 130.553ZM177.276 152.294C172.304 152.294 168.259 148.249 168.259 143.276C168.259 138.304 172.304 134.259 177.276 134.259C182.249 134.259 186.294 138.304 186.294 143.276C186.294 148.249 182.249 152.294 177.276 152.294Z" fill="#E9E9EB"/>
<path d="M177.277 137.718C174.211 137.718 171.718 140.211 171.718 143.276C171.718 146.342 174.211 148.835 177.277 148.835C180.342 148.835 182.835 146.342 182.835 143.276C182.835 140.211 180.342 137.718 177.277 137.718ZM177.277 145.129C176.255 145.129 175.424 144.298 175.424 143.276C175.424 142.255 176.255 141.424 177.277 141.424C178.298 141.424 179.13 142.255 179.13 143.276C179.13 144.298 178.298 145.129 177.277 145.129Z" fill="#E9E9EB"/>
<path d="M182.588 100.412H171.471C167.384 100.412 164.059 103.737 164.059 107.824V118.941C164.059 123.028 167.384 126.353 171.471 126.353H182.588C186.675 126.353 190 123.028 190 118.941V107.824C190 103.737 186.675 100.412 182.588 100.412ZM186.294 118.941C186.294 120.985 184.632 122.647 182.588 122.647H171.471C169.427 122.647 167.765 120.985 167.765 118.941V107.824C167.765 105.78 169.427 104.118 171.471 104.118H182.588C184.632 104.118 186.294 105.78 186.294 107.824V118.941Z" fill="#E9E9EB"/>
<path d="M178.882 107.824H175.177C173.133 107.824 171.471 109.486 171.471 111.529V115.235C171.471 117.279 173.133 118.941 175.177 118.941H178.882C180.926 118.941 182.588 117.279 182.588 115.235V111.529C182.588 109.486 180.926 107.824 178.882 107.824ZM178.882 115.235H175.177L175.174 111.53C175.174 111.53 175.175 111.529 175.177 111.529H178.882V115.235Z" fill="#E9E9EB"/>
<path d="M154.794 93H158.5V122.647H154.794V93Z" fill="#E9E9EB"/>
<path d="M158.5 126.353H162.206V156H158.5V126.353Z" fill="#E9E9EB"/>
</g>
<defs>
<clipPath id="clip0_147_1812">
<rect width="63" height="63" fill="white"/>
</clipPath>
<clipPath id="clip1_147_1812">
<rect width="63" height="63" fill="white" transform="translate(127 93)"/>
</clipPath>
</defs>
</svg>
